<?xml version="1.0" encoding="UTF-8"?>
<svg width="40px" height="40px" viewBox="0 0 40 40" version="1.1" xmlns="http://www.w3.org/2000/svg" xmlns:xlink="http://www.w3.org/1999/xlink">
    <!-- Generator: Sketch 64 (93537) - https://sketch.com -->
    <desc>Created with Sketch.</desc>
    <g id="Page-1" stroke="none" stroke-width="1" fill="none" fill-rule="evenodd">
        <g id="twitter">
            <rect id="Rectangle" fill="#EDEDED" x="0" y="0" width="40" height="40" rx="3.75"></rect>
            <path d="M27.7510445,14.0643015 C28.5600858,13.5537503 29.1808737,12.7441959 29.4722182,11.7798215 C28.7147225,12.2537359 27.8776673,12.596467 26.9845844,12.7820145 C26.2719109,11.9783692 25.2533256,11.4772727 24.1260465,11.4772727 C21.9633738,11.4772727 20.2108246,13.3268387 20.2108246,15.6077732 C20.2108246,15.9315949 20.2433207,16.2471439 20.310554,16.5485109 C17.05646,16.3759635 14.1710288,14.733218 12.2380701,12.2324629 C11.9007828,12.8446516 11.7080472,13.5537503 11.7080472,14.3101224 C11.7080472,15.7425019 12.3994301,17.0070614 13.4505115,17.7492515 C12.808433,17.7279785 12.2044534,17.5400674 11.6755511,17.2327912 L11.6755511,17.28361 C11.6755511,19.2856322 13.0247003,20.9555599 14.8187101,21.3337459 C14.4892667,21.430656 14.1441355,21.4791111 13.7855576,21.4791111 C13.5334326,21.4791111 13.2869103,21.4542927 13.0493525,21.4058376 C13.5468793,23.0462195 14.9935168,24.2422327 16.7079672,24.2741422 C15.3666619,25.3827 13.6779843,26.0421618 11.8436344,26.0421618 C11.5276377,26.0421618 11.2150026,26.0244344 10.9090909,25.9854339 C12.6425907,27.1566288 14.7010517,27.8409091 16.9130289,27.8409091 C24.1182026,27.8409091 28.0558357,21.5464755 28.0558357,16.0875967 C28.0558357,15.9079583 28.0535946,15.7295018 28.0457507,15.5534089 C28.8110903,14.9707661 29.4767004,14.242758 30,13.4142942 C29.2974115,13.7428434 28.5421569,13.9650276 27.7510445,14.0643015 Z" id="Shape" fill="#3E3E3E"></path>
        </g>
    </g>
</svg>