<?xml version="1.0" encoding="UTF-8"?>
<svg width="32px" height="32px" viewBox="0 0 32 32" version="1.1" xmlns="http://www.w3.org/2000/svg" xmlns:xlink="http://www.w3.org/1999/xlink">
    <!-- Generator: Sketch 64 (93537) - https://sketch.com -->
    <desc>Created with Sketch.</desc>
    <g id="Page-1" stroke="none" stroke-width="1" fill="none" fill-rule="evenodd">
        <g id="twitter">
            <rect id="Rectangle" fill="#EDEDED" x="0" y="0" width="32" height="32" rx="3"></rect>
            <path d="M22.2008356,11.2514412 C22.8480686,10.8430003 23.344699,10.1953567 23.5777746,9.42385723 C22.971778,9.80298872 22.3021339,10.0771736 21.5876675,10.2256116 C21.0175287,9.58269536 20.2026605,9.18181818 19.3008372,9.18181818 C17.5706991,9.18181818 16.1686597,10.661471 16.1686597,12.4862185 C16.1686597,12.745276 16.1946565,12.9977151 16.2484432,13.2388087 C13.645168,13.1007708 11.3368231,11.7865744 9.79045607,9.78597035 C9.52062623,10.2757212 9.36643775,10.8430003 9.36643775,11.4480979 C9.36643775,12.5940015 9.91954409,13.6056492 10.7604092,14.1994012 C10.2467464,14.1823828 9.76356273,14.0320539 9.34044086,13.786233 L9.34044086,13.826888 C9.34044086,15.4285058 10.4197602,16.7644479 11.8549681,17.0669967 C11.5914133,17.1445248 11.3153084,17.1832889 11.0284461,17.1832889 C10.8267461,17.1832889 10.6295282,17.1634341 10.439482,17.1246701 C10.8375034,18.4369756 11.9948134,19.3937862 13.3663737,19.4193137 C12.2933295,20.30616 10.9423874,20.8337295 9.47490755,20.8337295 C9.22211017,20.8337295 8.97200211,20.8195475 8.72727273,20.7883471 C10.1140726,21.725303 11.7608414,22.2727273 13.5304231,22.2727273 C19.2945621,22.2727273 22.4446686,17.2371804 22.4446686,12.8700773 C22.4446686,12.7263667 22.4428757,12.5836014 22.4366006,12.4427271 C23.0488722,11.9766129 23.5813604,11.3942064 24,10.7314354 C23.4379292,10.9942747 22.8337255,11.1720221 22.2008356,11.2514412 Z" id="Shape" fill="#3E3E3E"></path>
        </g>
    </g>
</svg>